<svg width="18" height="18" viewBox="0 0 18 18" fill="none" xmlns="http://www.w3.org/2000/svg">
<path d="M0 2.78431C0 2.2071 0.202709 1.73091 0.608108 1.35574C1.01351 0.980553 1.54055 0.792969 2.18919 0.792969C2.82626 0.792969 3.34169 0.977661 3.73552 1.34708C4.14092 1.72803 4.34363 2.22441 4.34363 2.83626C4.34363 3.39037 4.14672 3.85212 3.7529 4.22154C3.3475 4.60249 2.81467 4.79297 2.15444 4.79297H2.13707C1.49999 4.79297 0.984562 4.60249 0.590734 4.22154C0.196905 3.84059 0 3.3615 0 2.78431ZM0.225869 17.9358V6.36872H4.08301V17.9358H0.225869ZM6.22008 17.9358H10.0772V11.4769C10.0772 11.0729 10.1236 10.7612 10.2162 10.5419C10.3784 10.1494 10.6245 9.81748 10.9546 9.54621C11.2847 9.27492 11.6988 9.13929 12.1969 9.13929C13.4942 9.13929 14.1429 10.0109 14.1429 11.754V17.9358H18V11.3038C18 9.59527 17.5946 8.29946 16.7838 7.41634C15.973 6.53323 14.9015 6.09167 13.5695 6.09167C12.0753 6.09167 10.9112 6.73236 10.0772 8.01374V8.04838H10.0598L10.0772 8.01374V6.36872H6.22008C6.24324 6.73813 6.25483 7.88675 6.25483 9.81461C6.25483 11.7425 6.24324 14.4495 6.22008 17.9358Z" fill="#FCFCFC"/>
</svg>
