<svg width="18" height="15" viewBox="0 0 18 15" fill="none" xmlns="http://www.w3.org/2000/svg">
<path d="M12.0271 0.0657417V0.0625H12.8711L13.1794 0.124092C13.385 0.164078 13.5717 0.21648 13.7394 0.281314C13.9071 0.346147 14.0694 0.421792 14.2263 0.508231C14.3832 0.594671 14.5255 0.682747 14.6532 0.772428C14.7798 0.86104 14.8934 0.955048 14.9941 1.05445C15.0936 1.15495 15.2489 1.18088 15.4599 1.13225C15.6709 1.08363 15.8981 1.01609 16.1416 0.92965C16.385 0.84321 16.6258 0.74596 16.8638 0.637899C17.1019 0.529837 17.2469 0.461227 17.2988 0.432052C17.3497 0.401807 17.3768 0.385598 17.38 0.383426L17.3832 0.378564L17.3995 0.37046L17.4157 0.362356L17.4319 0.354251L17.4482 0.346147L17.4514 0.341285L17.4563 0.338043L17.4612 0.334801L17.4644 0.329939L17.4806 0.325076L17.4968 0.321835L17.4936 0.346147L17.4887 0.37046L17.4806 0.394772L17.4725 0.419085L17.4644 0.435293L17.4563 0.451502L17.4482 0.475814C17.4427 0.492023 17.4373 0.513629 17.4319 0.540648C17.4265 0.567667 17.3751 0.675713 17.2777 0.864816C17.1803 1.05392 17.0586 1.24571 16.9125 1.44021C16.7665 1.63472 16.6355 1.78166 16.5198 1.88108C16.4029 1.98158 16.3255 2.05181 16.2876 2.09179C16.2498 2.13285 16.2038 2.17066 16.1497 2.20525L16.0685 2.25874L16.0523 2.26684L16.0361 2.27495L16.0328 2.27981L16.028 2.28305L16.0231 2.28629L16.0198 2.29116L16.0036 2.29926L15.9874 2.30736L15.9841 2.31223L15.9793 2.31547L15.9744 2.31871L15.9711 2.32357L15.9679 2.32844L15.963 2.33168L15.9582 2.33492L15.9549 2.33978H16.0361L16.4905 2.24253C16.7935 2.1777 17.083 2.09936 17.3589 2.00751L17.7971 1.86163L17.8458 1.84542L17.8702 1.83732L17.8864 1.82922L17.9026 1.82111L17.9188 1.81301L17.9351 1.8049L17.9675 1.80004L18 1.7968V1.82922L17.9919 1.83246L17.9838 1.83732L17.9805 1.84218L17.9757 1.84542L17.9708 1.84867L17.9675 1.85353L17.9643 1.85839L17.9594 1.86163L17.9546 1.86487L17.9513 1.86974L17.9481 1.8746L17.9432 1.87784L17.9351 1.89405L17.927 1.91026L17.9221 1.9135C17.9199 1.91674 17.8512 2.00858 17.716 2.18904C17.5807 2.37058 17.5077 2.46241 17.4968 2.46459C17.486 2.46783 17.4709 2.48404 17.4514 2.51321C17.433 2.54346 17.3183 2.66395 17.1073 2.87466C16.8963 3.08537 16.6897 3.27283 16.4873 3.43709C16.2839 3.60242 16.1811 3.80556 16.1789 4.04653C16.1757 4.28641 16.1632 4.55764 16.1416 4.86019C16.1199 5.16275 16.0794 5.48961 16.0198 5.8408C15.9603 6.19199 15.8684 6.58909 15.7439 7.03212C15.6195 7.47514 15.468 7.90737 15.2894 8.32879C15.1109 8.75021 14.9243 9.1284 14.7295 9.46338C14.5347 9.79836 14.3562 10.082 14.1939 10.3143C14.0316 10.5466 13.8666 10.7654 13.6988 10.9708C13.5311 11.1761 13.319 11.4073 13.0626 11.6645C12.8051 11.9206 12.6644 12.061 12.6406 12.0859C12.6157 12.1097 12.5097 12.1983 12.3225 12.3517C12.1363 12.5062 11.9362 12.6607 11.7219 12.8153C11.5088 12.9687 11.3129 13.0968 11.1344 13.1994C10.9558 13.3021 10.7405 13.4193 10.4884 13.5511C10.2373 13.684 9.96573 13.8072 9.67358 13.9207C9.38142 14.0341 9.07304 14.1395 8.74842 14.2368C8.42381 14.334 8.11001 14.4096 7.80703 14.4637C7.50407 14.5177 7.16051 14.5636 6.77637 14.6014L6.20018 14.6582V14.6663H5.14518V14.6582L5.00721 14.6501C4.91525 14.6447 4.8395 14.6393 4.77998 14.6339C4.72048 14.6285 4.49594 14.5987 4.1064 14.5447C3.71686 14.4907 3.41119 14.4367 3.18936 14.3826C2.96755 14.3286 2.63751 14.2259 2.19928 14.0747C1.76105 13.9234 1.38611 13.7705 1.07448 13.616C0.763937 13.4625 0.569167 13.3653 0.490171 13.3242C0.412263 13.2842 0.324617 13.2345 0.227232 13.1751L0.0811542 13.086L0.0779243 13.0811L0.0730388 13.0779L0.0681695 13.0746L0.0649234 13.0697L0.0486925 13.0616L0.0324617 13.0535L0.0292317 13.0487L0.0243463 13.0454L0.019477 13.0422L0.0162308 13.0373L0.0130009 13.0325L0.00811542 13.0292H0V12.9968L0.0162308 13.0001L0.0324617 13.0049L0.1055 13.013C0.154193 13.0184 0.28675 13.0265 0.503156 13.0373C0.719578 13.0481 0.949504 13.0481 1.19297 13.0373C1.43643 13.0265 1.68531 13.0022 1.93959 12.9644C2.19387 12.9266 2.49414 12.8617 2.8404 12.7699C3.18667 12.678 3.50479 12.5689 3.79479 12.4425C4.08369 12.315 4.28927 12.2199 4.41156 12.1572C4.53274 12.0956 4.71777 11.9811 4.96664 11.8136L5.33995 11.5624L5.34319 11.5575L5.34806 11.5543L5.35295 11.551L5.35618 11.5462L5.35942 11.5413L5.36429 11.5381L5.36918 11.5348L5.37241 11.5299L5.38864 11.5251L5.40487 11.5218L5.40812 11.5056L5.41298 11.4894L5.41787 11.4862L5.4211 11.4813L5.29125 11.4732C5.20469 11.4678 5.12083 11.4624 5.03968 11.457C4.95852 11.4516 4.83139 11.4273 4.65825 11.3841C4.48513 11.3408 4.29848 11.276 4.09829 11.1896C3.89811 11.1031 3.70334 11.0005 3.51398 10.8816C3.32463 10.7628 3.18774 10.6639 3.10334 10.585C3.02002 10.5072 2.91181 10.397 2.77872 10.2543C2.64671 10.1106 2.53201 9.96313 2.43463 9.81186C2.33724 9.66058 2.24419 9.48605 2.15547 9.28833L2.02074 8.99333L2.01262 8.96902L2.00451 8.94471L1.99964 8.9285L1.99639 8.91229L2.02074 8.91553L2.04509 8.92039L2.22362 8.94471C2.34266 8.96092 2.52932 8.96631 2.78359 8.96092C3.03788 8.95552 3.21371 8.94471 3.31109 8.9285C3.40848 8.91229 3.46799 8.90148 3.48963 8.89608L3.52209 8.88798L3.56267 8.87987L3.60325 8.87177L3.60649 8.86691L3.61136 8.86367L3.61625 8.86042L3.61948 8.85556L3.58702 8.84746L3.55455 8.83935L3.52209 8.83125L3.48963 8.82314L3.45717 8.81504C3.43553 8.80964 3.39767 8.79883 3.34355 8.78262C3.28946 8.76642 3.14338 8.70698 2.90532 8.60433C2.66728 8.50168 2.47791 8.40173 2.33724 8.30448C2.19622 8.20694 2.06176 8.10028 1.93472 7.98517C1.80812 7.86847 1.66908 7.71827 1.51758 7.53458C1.3661 7.35089 1.23085 7.13747 1.11181 6.89434C0.992792 6.65122 0.903522 6.4189 0.844004 6.19738C0.784724 5.97717 0.745615 5.75202 0.727158 5.52473L0.697926 5.18436L0.714157 5.1876L0.730388 5.19246L0.746619 5.20057L0.762849 5.20867L0.77908 5.21677L0.795311 5.22488L1.04689 5.33834C1.21462 5.41398 1.42291 5.47882 1.67178 5.53284C1.92066 5.58686 2.06943 5.61659 2.11812 5.62198L2.19116 5.63009H2.33724L2.33401 5.62523L2.32913 5.62198L2.32426 5.61874L2.32101 5.61388L2.31778 5.60902L2.31289 5.60578L2.30803 5.60253L2.30478 5.59767L2.28855 5.58957L2.27232 5.58146L2.26909 5.5766L2.2642 5.57336L2.25933 5.57012L2.25609 5.56525L2.23986 5.55715L2.22362 5.54905L2.22039 5.54418C2.21715 5.54201 2.17061 5.50744 2.08079 5.44045C1.99206 5.37237 1.89901 5.28431 1.80162 5.17625C1.70424 5.06819 1.60685 4.95473 1.50947 4.83588C1.4119 4.71675 1.32501 4.58929 1.24977 4.45498C1.17404 4.31991 1.09396 4.14809 1.00956 3.93955C0.926245 3.73208 0.862945 3.523 0.819657 3.31229C0.776386 3.10158 0.75204 2.89357 0.746619 2.68826C0.741214 2.48295 0.746619 2.30736 0.762849 2.16149C0.77908 2.01561 0.811542 1.85082 0.860234 1.66713C0.908927 1.48344 0.979271 1.28894 1.07124 1.08363L1.2092 0.77567L1.21731 0.751357L1.22543 0.727045L1.23031 0.723803L1.23354 0.718941L1.23679 0.714078L1.24166 0.710836L1.24654 0.714078L1.24977 0.718941L1.25302 0.723803L1.25789 0.727045L1.26278 0.730286L1.26601 0.735149L1.26925 0.740011L1.27412 0.743253L1.28224 0.759462L1.29035 0.77567L1.29524 0.778912L1.29847 0.783774L1.51758 1.0269C1.66366 1.18898 1.8368 1.36998 2.03697 1.56988C2.23716 1.76978 2.34807 1.87351 2.3697 1.88108C2.39135 1.88972 2.41839 1.91457 2.45086 1.95564C2.48332 1.99563 2.59153 2.09126 2.77547 2.24253C2.95943 2.3938 3.20019 2.56941 3.49775 2.7693C3.79532 2.9692 4.12534 3.16641 4.48783 3.36091C4.85033 3.55541 5.23987 3.731 5.65645 3.88768C6.07304 4.04437 6.3652 4.14702 6.53291 4.19564C6.70064 4.24427 6.98738 4.3064 7.39315 4.38204C7.79892 4.45769 8.10461 4.50631 8.31019 4.52792C8.51579 4.54952 8.65646 4.56195 8.73219 4.5652L8.84581 4.56844L8.84258 4.54413L8.83769 4.51981L8.80523 4.31721C8.78359 4.18214 8.77277 3.99304 8.77277 3.74991C8.77277 3.50679 8.79171 3.28258 8.82958 3.07726C8.86746 2.87195 8.92427 2.66395 9 2.45324C9.07575 2.24253 9.14988 2.07341 9.22236 1.94592C9.29595 1.81949 9.39225 1.67524 9.51127 1.51315C9.63031 1.35107 9.7845 1.18359 9.97385 1.01069C10.1632 0.837797 10.3796 0.683817 10.6231 0.548752C10.8665 0.413688 11.0911 0.311024 11.2967 0.240792C11.5023 0.170561 11.6754 0.124627 11.8161 0.103021C11.9567 0.0814152 12.0271 0.0689834 12.0271 0.0657417Z" fill="#FCFCFC"/>
</svg>
