<svg width="20" height="15" viewBox="0 0 20 15" fill="none" xmlns="http://www.w3.org/2000/svg">
<path d="M10.4388 14.3439L6.37656 14.268C5.06131 14.2416 3.74279 14.2944 2.45333 14.0203C0.491769 13.6108 0.352805 11.6029 0.207394 9.91863C0.00703182 7.55079 0.0845979 5.13997 0.462707 2.7919C0.676162 1.47438 1.51619 0.688212 2.81527 0.602661C7.20062 0.292186 11.6151 0.328981 15.9908 0.473829C16.4529 0.487107 16.9182 0.559683 17.3739 0.642294C19.6232 1.04521 19.678 3.32061 19.8238 5.23607C19.9692 7.17129 19.9078 9.11645 19.6299 11.0385C19.4069 12.6299 18.9803 13.9644 17.1799 14.0933C14.9242 14.2617 12.7202 14.3974 10.4581 14.3542C10.4582 14.3439 10.4452 14.3439 10.4388 14.3439ZM8.05058 10.315C9.75048 9.31755 11.4179 8.33676 13.1081 7.34604C11.4051 6.34863 9.74076 5.36784 8.05058 4.37712V10.315Z" fill="#FCFCFC"/>
</svg>
