<svg width="34" height="33" viewBox="0 0 34 33" fill="none" xmlns="http://www.w3.org/2000/svg">
<g clip-path="url(#clip0_74_6626)">
<g clip-path="url(#clip1_74_6626)">
<path d="M19.9766 15.0289C20.6646 15.3538 21.4324 15.5364 22.2424 15.5364C25.1783 15.5364 27.5667 13.148 27.5667 10.2122C27.5667 7.27634 25.1783 4.88794 22.2424 4.88794C21.4324 4.88794 20.6646 5.07053 19.9766 5.3955C20.4969 6.06581 20.9114 6.82206 21.1948 7.63907C21.4747 8.44581 21.6273 9.31143 21.6273 10.2122C21.6273 11.1129 21.4747 11.9786 21.1948 12.7853C20.9114 13.6023 20.4969 14.3586 19.9766 15.0289Z" fill="#FF7A00"/>
<path d="M21.3018 18.1275C22.2782 18.8877 23.1371 19.7917 23.8472 20.8073C25.0122 22.4738 25.7758 24.4405 25.9953 26.5666C26.0385 26.9851 26.0608 27.4096 26.0608 27.8394C26.0608 28.2855 25.9832 28.7137 25.8419 29.1121H30.7276C31.4305 29.1121 32.0003 28.5422 32.0003 27.8394C32.0003 22.459 27.6231 18.0818 22.2427 18.0818C21.9277 18.0818 21.6137 18.0973 21.3018 18.1275Z" fill="#FF7A00"/>
<path d="M13.7578 15.5364C15.4878 15.5364 17.0271 14.7066 18.0003 13.4246C18.6785 12.531 19.0821 11.418 19.0821 10.2122C19.0821 9.00632 18.6785 7.89336 18.0003 6.99973C17.0271 5.71776 15.4878 4.88794 13.7578 4.88794C10.822 4.88794 8.43359 7.27634 8.43359 10.2122C8.43359 13.148 10.822 15.5364 13.7578 15.5364Z" fill="#FF7A00"/>
<path d="M5.27273 29.1121H22.2424C22.9453 29.1121 23.5152 28.5422 23.5152 27.8394C23.5152 27.4081 23.4866 26.9833 23.4321 26.5666C23.1394 24.3289 22.0853 22.3276 20.5394 20.8311C19.796 20.1115 18.9391 19.5084 17.9981 19.0524C16.7151 18.4308 15.2764 18.0818 13.7576 18.0818C8.37725 18.0818 4 22.459 4 27.8394C4 28.5422 4.56984 29.1121 5.27273 29.1121Z" fill="#FF7A00"/>
</g>
</g>
<defs>
<clipPath id="clip0_74_6626">
<rect width="32.9342" height="31.6675" fill="white" transform="translate(0.961914 0.377197)"/>
</clipPath>
<clipPath id="clip1_74_6626">
<rect width="28" height="28" fill="white" transform="translate(4 3)"/>
</clipPath>
</defs>
</svg>
