<svg width="33" height="32" viewBox="0 0 33 32" fill="none" xmlns="http://www.w3.org/2000/svg">
<g clip-path="url(#clip0_74_6686)">
<path d="M25.0857 13.5081V19.8547H27.6375V13.5081C27.6375 13.3154 27.7942 13.1587 27.9869 13.1587H28.7789L26.3606 9.95044L23.9443 13.1587H24.7363C24.929 13.1587 25.0857 13.3154 25.0857 13.5081Z" fill="#0062FF"/>
<path d="M27.9861 20.5557H24.7355H23.5391V33.2637H29.1826V20.5557H27.9861Z" fill="#0062FF"/>
<path d="M14.8213 25.7375H20.4627V33.2637H14.8213V25.7375Z" fill="#0062FF"/>
<path d="M6.10059 29.3352H11.742V33.2634H6.10059V29.3352Z" fill="#0062FF"/>
<path d="M16.5894 22.7176C16.9197 22.4444 17.1188 22.0569 17.1484 21.627L17.4322 17.4807C17.4661 16.9873 17.1865 16.5171 16.7376 16.3117L13.4912 14.8188L13.4574 12.1781L14.7216 12.9489C14.9101 13.0633 15.1155 13.1395 15.3357 13.1713L18.203 13.5884C18.652 13.6541 19.1051 13.5207 19.4482 13.2242C19.7912 12.9277 19.9882 12.4979 19.9882 12.0447C19.9882 11.2802 19.4418 10.6322 18.688 10.5051L15.6576 9.99268L12.8115 7.22491C11.8585 6.29738 10.3847 6.1915 9.30678 6.97079L5.78513 9.51832C5.39337 9.80209 5.14984 10.2383 5.11172 10.7211L4.8216 14.5329C4.79407 14.8908 4.90207 15.2444 5.12231 15.5282C5.34466 15.812 5.66019 16.0004 6.01595 16.0619C6.41195 16.1296 6.82066 16.0259 7.14042 15.7802C7.45807 15.5346 7.65925 15.1619 7.69313 14.7616L7.94725 11.7164L9.47195 10.6449L9.4296 16.7162L7.33313 24.8522C7.12348 25.6675 7.55972 26.5061 8.3496 26.8026C8.53595 26.8724 8.73078 26.9063 8.9256 26.9063C9.18819 26.9063 9.45078 26.8428 9.68795 26.7179C10.1009 26.5019 10.4037 26.1164 10.5202 25.6654L12.4176 18.171L14.0736 18.8466L14.0418 21.5042C14.0334 22.3026 14.6221 22.9739 15.4141 23.067C15.8418 23.1157 16.259 22.9908 16.5894 22.7176Z" fill="#0062FF"/>
<path d="M11.7311 5.67696C13.0927 5.67696 14.2024 4.56943 14.2024 3.20567C14.2024 1.84402 13.0948 0.734375 11.7311 0.734375C10.3694 0.734375 9.25977 1.8419 9.25977 3.20567C9.26188 4.56943 10.3694 5.67696 11.7311 5.67696Z" fill="#0062FF"/>
</g>
<defs>
<clipPath id="clip0_74_6686">
<rect width="32.9342" height="31.6675" fill="white" transform="translate(0.0634766 0.131592)"/>
</clipPath>
</defs>
</svg>
