<svg width="34" height="32" viewBox="0 0 34 32" fill="none" xmlns="http://www.w3.org/2000/svg">
<g clip-path="url(#clip0_74_6654)">
<g clip-path="url(#clip1_74_6654)">
<path fill-rule="evenodd" clip-rule="evenodd" d="M25.5707 26.5553V21.0931C25.8496 20.8306 26.112 20.5518 26.3745 20.2565C28.3757 17.9273 29.4747 14.9419 29.1466 11.8253C28.9826 10.2671 28.4741 8.77438 27.6867 7.44573C26.8994 6.11708 25.8332 4.93606 24.5538 4.03389C20.4366 1.09775 14.7119 1.3766 10.8736 4.608C9.21691 6.01866 7.97028 7.90501 7.36336 10.0538C7.36336 10.0702 7.34696 10.103 7.34696 10.1194C7.21574 10.5951 7.11732 11.0708 7.05171 11.5629C6.98609 12.055 6.95329 12.5471 6.95329 13.0556C6.95329 13.5641 6.98609 14.0562 7.05171 14.5647C7.11732 15.0075 7.19933 15.4504 7.31416 15.8769L4.90291 19.6332C4.82089 19.748 4.78809 19.8792 4.78809 19.9941C4.78809 20.3385 5.03413 20.601 5.29658 20.7814C5.52622 20.929 5.82148 21.0275 6.06752 21.0275H7.34696V23.8816C7.34696 25.5383 8.69201 26.8833 10.3487 26.8833H13.0552V28.7697C13.0552 29.4422 13.6129 29.9999 14.2854 29.9999H23.4548C24.6194 29.9999 25.5707 29.0485 25.5707 27.8675V26.5553ZM20.7483 16.0737C21.3716 16.2542 22.2737 16.5166 22.6838 15.8605C22.7822 15.7129 22.8806 15.4996 22.9791 15.3356C23.4219 14.6795 22.6674 13.9249 22.2245 13.5149L22.1753 13.4492C22.2081 13.2524 22.2245 13.0392 22.2245 12.8259C22.2245 12.6127 22.2081 12.3994 22.1753 12.1862L22.2245 12.137C22.7002 11.6777 23.3891 11.0216 22.9955 10.3163L22.7166 9.84057C22.3393 9.10244 21.2896 9.41409 20.6662 9.59453C20.3382 9.33208 19.9773 9.11884 19.5836 8.97121C19.4196 8.33149 19.2064 7.3145 18.3698 7.3145H17.7957C16.9591 7.3145 16.7459 8.33149 16.5819 8.97121C16.1882 9.11884 15.8109 9.33208 15.4829 9.59453C14.8596 9.41409 13.8754 9.10244 13.4653 9.82417C13.3177 10.0702 13.0716 10.4147 13.0552 10.7099C13.0224 11.2676 13.5473 11.7597 13.941 12.137L13.9902 12.1862C13.9246 12.6127 13.9246 13.0392 13.9902 13.4492L13.941 13.5149C13.4653 13.9577 12.7928 14.6139 13.1536 15.3028C13.2357 15.4668 13.3669 15.6637 13.4653 15.8277C13.859 16.5166 14.7775 16.2542 15.4173 16.0737L15.4829 16.0409C15.8109 16.3198 16.1882 16.533 16.5819 16.6806L16.5983 16.7627C16.7623 17.4024 16.992 18.3209 17.7957 18.3209C17.9925 18.3209 18.2222 18.3374 18.419 18.3209C19.1736 18.2881 19.4032 17.386 19.5508 16.7627L19.5836 16.6806C19.9773 16.533 20.3382 16.3198 20.6662 16.0409L20.7483 16.0737ZM20.8139 12.8259C20.8139 13.5805 20.5186 14.2694 20.0101 14.7615C19.518 15.2536 18.8291 15.5652 18.0746 15.5652C17.32 15.5652 16.6475 15.2536 16.139 14.7615C15.6469 14.2694 15.3516 13.5805 15.3516 12.8259C15.3516 12.0714 15.6469 11.3825 16.139 10.8904C16.6475 10.3983 17.32 10.0866 18.0746 10.0866C18.8291 10.0866 19.518 10.3983 20.0101 10.8904C20.5186 11.3825 20.8139 12.0714 20.8139 12.8259ZM23.3563 18.0913C22.0113 19.4528 20.1413 20.2893 18.0746 20.2893C16.0242 20.2893 14.1542 19.4528 12.8092 18.0913C11.4641 16.7463 10.6276 14.8763 10.6276 12.8259C10.6276 10.7591 11.4641 8.9056 12.8092 7.54415C14.1542 6.1991 16.0242 5.36254 18.0746 5.36254C20.1413 5.36254 22.0113 6.1991 23.3563 7.54415C24.7014 8.9056 25.5379 10.7591 25.5379 12.8259C25.5379 14.8763 24.7014 16.7463 23.3563 18.0913Z" fill="#FF4747"/>
</g>
</g>
<defs>
<clipPath id="clip0_74_6654">
<rect width="27.8674" height="27.8674" fill="white" transform="translate(2.99414 2.27734)"/>
</clipPath>
<clipPath id="clip1_74_6654">
<rect width="28" height="28" fill="white" transform="translate(3 2)"/>
</clipPath>
</defs>
</svg>
