<svg width="34" height="32" viewBox="0 0 34 32" fill="none" xmlns="http://www.w3.org/2000/svg">
<path d="M18 5.20937C18.4659 5.20937 18.8437 4.83156 18.8437 4.36562V2.875C18.8437 2.40906 18.4659 2.03125 18 2.03125C17.5341 2.03125 17.1562 2.40906 17.1562 2.875V4.36562C17.1562 4.83156 17.5341 5.20937 18 5.20937Z" fill="#00BF58"/>
<path d="M11.9157 6.21993C12.0826 6.40556 12.3123 6.49931 12.5429 6.49931C12.7445 6.49931 12.946 6.42806 13.1073 6.28368C13.4541 5.9715 13.4823 5.43899 13.1701 5.09212L12.2223 4.03837C11.9101 3.69056 11.3766 3.66431 11.0307 3.97462C10.6838 4.28681 10.6557 4.81931 10.9679 5.16618L11.9157 6.21993Z" fill="#00BF58"/>
<path d="M23.4574 6.49947C23.688 6.49947 23.9177 6.40478 24.0846 6.22009L25.0324 5.16634C25.3446 4.81947 25.3164 4.28697 24.9696 3.97478C24.6246 3.66447 24.0902 3.69166 23.778 4.03853L22.8302 5.09228C22.518 5.43916 22.5461 5.97166 22.893 6.28385C23.0552 6.42822 23.2558 6.49947 23.4574 6.49947Z" fill="#00BF58"/>
<path d="M18.5409 29.125H17.46C15.389 29.125 13.71 27.446 13.71 25.375V25.0713H22.2909V25.375C22.2909 27.446 20.6118 29.125 18.5409 29.125Z" fill="#00BF58"/>
<path d="M17.9999 7.82959C13.6368 7.82959 10.0762 11.3808 10.0762 15.7533C10.0762 17.7774 10.8496 19.629 12.1096 21.0324C12.7265 21.7196 13.1896 22.5193 13.4559 23.3837H17.1562V19.5821L15.0562 17.4821C14.7262 17.153 14.7262 16.6187 15.0562 16.2896C15.3862 15.9596 15.9205 15.9596 16.2496 16.2896L17.9999 18.0399L19.7502 16.2896C20.0802 15.9596 20.6146 15.9596 20.9437 16.2896C21.2737 16.6187 21.2737 17.153 20.9437 17.4821L18.8437 19.5821V23.3837H22.544C22.8102 22.5193 23.2734 21.7196 23.8902 21.0324C25.1502 19.629 25.9237 17.7774 25.9237 15.7533C25.9237 11.3808 22.363 7.82959 17.9999 7.82959Z" fill="#00BF58"/>
</svg>
