<svg width="99" height="47" viewBox="0 0 99 47" fill="none" xmlns="http://www.w3.org/2000/svg">
<g clip-path="url(#clip0_240_2456)">
<path d="M62.5293 40.7772C62.94 39.2501 63.4833 37.7552 64.1414 36.3124C66.2252 31.7776 69.5068 27.7877 73.6473 24.9665C73.8535 24.8267 74.0579 24.6958 74.2642 24.565C77.8165 22.3316 82.2601 21.1648 86.4329 21.543C88.3589 21.7151 90.222 22.2205 91.9184 23.0988C92.3667 23.3282 92.8024 23.5845 93.2221 23.8695C93.9035 24.3266 94.5544 24.8589 95.1516 25.4666C95.7541 26.0742 96.31 26.7607 96.8157 27.526C96.9842 27.7823 97.142 28.0404 97.2873 28.2968C98.8707 31.066 99.2401 33.8747 98.6806 36.4289C98.6196 36.7372 98.5407 37.0365 98.4475 37.3358C97.42 40.6571 94.8862 43.3529 91.7982 44.88C90.0839 45.726 88.3678 46.0523 86.6069 46.1831C85.4287 46.2674 84.2327 46.262 82.9953 46.262H66.573C64.7924 46.262 62.9705 46.3749 61.1934 46.262C61.0481 46.2154 62.4182 41.2074 62.5293 40.779V40.7772Z" fill="url(#paint0_linear_240_2456)"/>
<path opacity="0.33" d="M72.3955 46.2604C77.1995 42.5322 86.3772 34.4 91.9201 23.0972C92.3684 23.3266 92.8041 23.5829 93.2237 23.8679C93.9052 24.325 94.5561 24.8573 95.1532 25.4649C95.7558 26.0726 96.3117 26.759 96.8173 27.5244C96.9859 27.7807 97.1437 28.0388 97.289 28.2951C98.8724 31.0644 99.2418 33.8731 98.6823 36.4272C98.6213 36.7355 98.5424 37.0349 98.4492 37.3342C97.4217 40.6555 94.8878 43.3513 91.7999 44.8784C90.0856 45.7244 88.3695 46.0506 86.6086 46.1815C85.4304 46.2657 84.2343 46.2604 82.997 46.2604H72.3991H72.3955Z" fill="url(#paint1_linear_240_2456)"/>
<path opacity="0.33" d="M77.835 46.2603C90.2709 42.6773 94.476 28.1552 95.1539 25.4648C95.7564 26.0725 96.3123 26.759 96.818 27.5243C96.9865 27.7806 97.1443 28.0387 97.2896 28.295C98.873 31.0643 99.2424 33.873 98.6829 36.4272C98.6219 36.7355 98.543 37.0348 98.4498 37.3341C97.4223 40.6554 94.8885 43.3512 91.8005 44.8783C90.0862 45.7243 88.3701 46.0506 86.6092 46.1814C85.431 46.2656 84.235 46.2603 82.9976 46.2603H77.8386H77.835Z" fill="url(#paint2_linear_240_2456)"/>
<path opacity="0.33" d="M82.5781 46.2602C92.4337 41.9387 96.0506 32.9014 97.2897 28.2949C98.8731 31.0642 99.2425 33.8729 98.683 36.427C98.622 36.7353 98.5431 37.0347 98.4499 37.334C97.4224 40.6553 94.8886 43.3511 91.8006 44.8782C90.0863 45.7242 88.3702 46.0504 86.6093 46.1813C85.4311 46.2655 84.2351 46.2602 82.9977 46.2602H82.5817H82.5781Z" fill="url(#paint3_linear_240_2456)"/>
<path opacity="0.33" d="M86.6074 46.1816C91.2285 43.2905 95.8048 39.1985 98.683 36.4292C98.622 36.7375 98.5431 37.0368 98.4498 37.3362C97.4223 40.6575 94.8885 43.3532 91.8006 44.8804C90.0863 45.7264 88.3702 46.0526 86.6092 46.1834L86.6074 46.1816Z" fill="url(#paint4_linear_240_2456)"/>
<path d="M62.5293 40.7772C62.94 39.2501 63.4833 37.7552 64.1414 36.3124C66.2252 31.7776 69.5067 27.7877 73.6473 24.9665C73.8535 24.8267 74.0579 24.6958 74.2642 24.565C77.8165 22.3316 82.2601 21.1648 86.4329 21.543C88.3589 21.7151 90.222 22.2205 91.9184 23.0988C92.3667 23.3282 92.8024 23.5845 93.2221 23.8695C93.9035 24.3266 94.5544 24.8589 95.1516 25.4666C95.7541 26.0742 96.31 26.7607 96.8157 27.526C96.9842 27.7823 97.142 28.0404 97.2873 28.2968C98.8707 31.066 99.2401 33.8747 98.6806 36.4289C98.6196 36.7372 98.5407 37.0365 98.4475 37.3358C97.42 40.6571 94.8862 43.3529 91.7982 44.88C90.0839 45.726 88.3678 46.0523 86.6069 46.1831C85.4287 46.2674 84.2327 46.262 82.9953 46.262H66.573C64.7924 46.262 62.9705 46.3749 61.1934 46.262C61.0481 46.2154 62.4182 41.2074 62.5293 40.779V40.7772Z" stroke="url(#paint5_linear_240_2456)" stroke-width="0.6" stroke-miterlimit="10"/>
<path d="M97.5647 5.77907C97.1541 7.3062 96.6107 8.80106 95.9526 10.2439C93.8689 14.7787 90.5873 18.7686 86.4467 21.5898C86.2405 21.7296 86.0361 21.8605 85.8299 21.9913C82.2775 24.2247 77.8339 25.3915 73.6611 25.0133C71.7352 24.8412 69.872 24.3358 68.1756 23.4575C67.7273 23.2281 67.2916 22.9718 66.872 22.6868C66.1905 22.2297 65.5396 21.6974 64.9425 21.0898C64.3399 20.4821 63.784 19.7956 63.2784 19.0303C63.1098 18.774 62.952 18.5159 62.8067 18.2596C61.2233 15.4903 60.8539 12.6816 61.4134 10.1274C61.4744 9.81914 61.5533 9.51981 61.6465 9.22048C62.674 5.89916 65.2079 3.20339 68.2958 1.67627C70.0101 0.830255 71.7262 0.504039 73.4872 0.373193C74.6653 0.288951 75.8614 0.294328 77.0987 0.294328H93.521C95.3017 0.294328 97.1236 0.181407 98.9006 0.294328C99.0459 0.34093 97.6759 5.3489 97.5647 5.77728V5.77907Z" fill="url(#paint6_linear_240_2456)"/>
<path d="M87.6992 0.295967C82.8952 4.02416 73.7175 12.1563 68.1747 23.4592C67.7264 23.2297 67.2906 22.9734 66.871 22.6884C66.1896 22.2314 65.5386 21.699 64.9415 21.0914C64.339 20.4838 63.7831 19.7973 63.2774 19.0319C63.1088 18.7756 62.951 18.5175 62.8058 18.2612C61.2224 15.4919 60.853 12.6832 61.4124 10.1291C61.4734 9.82078 61.5523 9.52145 61.6456 9.22212C62.6731 5.9008 65.2069 3.20503 68.2948 1.67791C70.0091 0.831895 71.7252 0.505678 73.4862 0.374833C74.6643 0.29059 75.8604 0.295967 77.0977 0.295967H87.6956H87.6992Z" fill="url(#paint7_linear_240_2456)"/>
<path d="M84.595 0.295967C77.4311 4.81282 70.2116 16.6875 66.869 22.6884C66.1876 22.2314 65.5367 21.699 64.9395 21.0914C64.337 20.4838 63.7811 19.7973 63.2754 19.0319C63.1069 18.7756 62.9491 18.5175 62.8038 18.2612C61.2204 15.4919 60.851 12.6832 61.4105 10.1291C61.4715 9.82078 61.5504 9.52145 61.6436 9.22212C62.6711 5.9008 65.2049 3.20503 68.2929 1.67791C70.0072 0.831895 71.7233 0.505678 73.4842 0.374833C74.6624 0.29059 75.8584 0.295967 77.0958 0.295967H84.5914H84.595Z" fill="url(#paint8_linear_240_2456)"/>
<path d="M82.2584 0.295967C69.8225 3.87898 65.6174 18.401 64.9395 21.0914C64.337 20.4838 63.7811 19.7973 63.2754 19.0319C63.1069 18.7756 62.9491 18.5175 62.8038 18.2612C61.2204 15.4919 60.851 12.6832 61.4105 10.1291C61.4715 9.82078 61.5504 9.52145 61.6436 9.22212C62.6711 5.9008 65.2049 3.20503 68.2929 1.67791C70.0072 0.831895 71.7233 0.505678 73.4842 0.374833C74.6624 0.29059 75.8584 0.295967 77.0958 0.295967H82.2549H82.2584Z" fill="url(#paint9_linear_240_2456)"/>
<path d="M77.5154 0.295967C67.6599 4.61744 64.0429 13.6547 62.8038 18.2612C61.2204 15.4919 60.851 12.6832 61.4105 10.1291C61.4715 9.82078 61.5504 9.52145 61.6436 9.22212C62.6711 5.9008 65.2049 3.20503 68.2929 1.67791C70.0072 0.831895 71.7233 0.505678 73.4842 0.374833C74.6624 0.29059 75.8584 0.295967 77.0958 0.295967H77.5118H77.5154Z" fill="url(#paint10_linear_240_2456)"/>
<path d="M73.4876 0.374839C68.8665 3.26598 64.2902 7.35803 61.4121 10.1273C61.4731 9.819 61.552 9.51966 61.6452 9.22033C62.6727 5.89902 65.2066 3.20325 68.2945 1.67612C70.0088 0.830109 71.7249 0.503892 73.4858 0.373047L73.4876 0.374839Z" fill="url(#paint11_linear_240_2456)"/>
<path d="M97.5647 5.77907C97.1541 7.3062 96.6107 8.80106 95.9526 10.2439C93.8689 14.7787 90.5873 18.7686 86.4467 21.5898C86.2405 21.7296 86.0361 21.8605 85.8299 21.9913C82.2775 24.2247 77.8339 25.3915 73.6611 25.0133C71.7352 24.8412 69.872 24.3358 68.1756 23.4575C67.7273 23.2281 67.2916 22.9718 66.872 22.6868C66.1905 22.2297 65.5396 21.6974 64.9425 21.0898C64.3399 20.4821 63.784 19.7956 63.2784 19.0303C63.1098 18.774 62.952 18.5159 62.8067 18.2596C61.2233 15.4903 60.8539 12.6816 61.4134 10.1274C61.4744 9.81914 61.5533 9.51981 61.6465 9.22048C62.674 5.89916 65.2079 3.20339 68.2958 1.67627C70.0101 0.830255 71.7262 0.504039 73.4872 0.373193C74.6653 0.288951 75.8614 0.294328 77.0987 0.294328H93.521C95.3017 0.294328 97.1236 0.181407 98.9006 0.294328C99.0459 0.34093 97.6759 5.3489 97.5647 5.77728V5.77907Z" stroke="url(#paint12_linear_240_2456)" stroke-miterlimit="10"/>
<path opacity="0.35" d="M85.8216 21.943C86.0278 21.8122 86.2323 21.6813 86.4331 21.5415C82.2603 21.1633 77.8149 22.3302 74.2643 24.5635C74.0581 24.6944 73.8537 24.8252 73.6475 24.965C77.8203 25.3432 82.2657 24.1799 85.8216 21.943Z" fill="#0E28F5"/>
<path d="M19.8686 22.6957C22.7449 22.6581 25.4688 20.5394 25.5836 16.2269V11.0075C25.5836 9.83523 23.88 9.87287 23.88 10.9698V16.0011C23.88 18.989 22.6302 20.8424 19.8686 20.9194C17.2953 20.8441 15.5918 19.2543 15.8195 16.4564L16.1226 12.4844C16.1979 11.3498 14.4943 11.1598 14.419 12.2944L14.1159 16.4564C13.9653 20.6183 16.8793 22.7351 19.8686 22.6975V22.6957Z" fill="white"/>
<path d="M20.2852 7.79175V7.18592C20.2852 6.01369 18.5439 6.05133 18.5439 7.18592V7.79175C18.5439 8.96398 20.2852 8.96398 20.2852 7.79175Z" fill="white"/>
<path d="M34.666 22.6204V22.0145C34.666 20.8423 32.9248 20.8799 32.9248 22.0145V22.6204C32.9248 23.7926 34.666 23.7926 34.666 22.6204Z" fill="white"/>
<path d="M37.0137 22.6204V22.0145C37.0137 20.8423 35.2725 20.8799 35.2725 22.0145V22.6204C35.2725 23.7926 37.0137 23.7926 37.0137 22.6204Z" fill="white"/>
<path d="M46.7002 8.7009L50.0678 8.20978C50.7116 8.09686 50.5968 7.07519 50.0678 7.11283L46.623 7.60395C45.9416 7.67923 46.094 8.81382 46.6984 8.7009H46.7002Z" fill="white"/>
<path d="M51.4706 10.2135V13.8073C51.4706 16.4923 50.8645 17.7416 49.2004 17.7416V10.7046C49.2004 9.60767 47.5345 9.60767 47.5345 10.7046V14.7142C47.3444 17.1734 46.55 17.7398 43.4477 17.7398V11.9521C43.4477 10.8552 41.7065 10.8552 41.7065 11.9521V15.9994C41.6688 17.4745 40.7973 17.7398 40.1177 17.7398H38.2635C37.2414 17.7398 37.0908 17.3616 37.0908 15.8112V11.0075C37.0908 9.8353 35.3872 9.87294 35.3872 10.9699V16.1894C35.3872 17.1357 34.8187 17.7398 34.0244 17.7398H31.0727C29.4068 17.7398 28.9155 17.5892 28.9155 16.3023V6.61794C28.9155 5.44571 27.2119 5.44571 27.2119 6.61794V16.5658C27.2496 18.532 28.46 19.4408 30.2389 19.4408H34.0244C34.8941 19.4408 35.6508 19.1755 36.1439 18.722C36.5976 19.2131 37.279 19.4408 38.2635 19.4408H40.1177C40.6862 19.4408 41.2528 19.3279 41.7065 19.1002V19.4408H43.5983C45.3396 19.4408 46.6253 19.1755 47.5345 18.532V19.4408C51.6589 19.5537 53.1347 18.1538 53.1347 13.8037V10.2099C53.1347 9.1506 51.4688 9.1506 51.4688 10.2099L51.4706 10.2135Z" fill="white"/>
<path d="M4.99575 32.9481C3.3693 32.4946 2.2324 32.1164 2.2324 30.8294C2.2324 29.5425 3.21687 28.7861 4.73035 28.7861C6.65985 28.7861 6.96291 29.8078 7.71965 29.8078C8.17333 29.8078 8.51404 29.4296 8.51404 28.9008V28.8255C8.51404 28.2574 8.24865 27.8792 7.60488 27.6157C6.92346 27.3128 5.93898 27.0869 4.72856 27.0869C2.04232 27.0869 0.186335 28.3739 0.186335 30.8707C0.186335 32.6864 1.20847 33.821 3.63111 34.5774C5.25756 35.0685 6.99877 35.2961 6.99877 36.9989C6.99877 38.284 5.90132 39.0799 4.16011 39.0799C1.81458 39.0799 1.69981 37.7553 0.8301 37.7553C0.301101 37.7553 -0.00195312 38.1335 -0.00195312 38.6622V38.7752C-0.00195312 39.3039 0.263443 39.7592 0.8301 40.0997C1.51152 40.5156 2.7596 40.7809 4.23542 40.7809C7.37714 40.7809 8.89062 39.3433 8.89062 36.9989C8.89062 34.6544 7.90614 33.7833 4.99216 32.9516L4.99575 32.9481Z" fill="white"/>
<path d="M16.9926 27.9924C16.5389 26.7825 15.1008 26.7825 14.6848 27.9924L10.5209 39.4171C9.9919 40.817 11.7313 41.3457 12.2245 39.9459L13.3596 36.7303H18.203L19.3758 39.9835C19.8672 41.3457 21.5707 40.7399 21.117 39.4153L16.9926 27.9906V27.9924ZM14.0033 35.0275L15.8199 30.0339L17.5611 35.0275H14.0033Z" fill="white"/>
<path d="M28.6482 27.501L25.0904 33.0234L21.4197 27.501C20.7383 26.4794 19.1871 27.1228 19.8309 28.1821L24.183 34.6133V39.8327C24.183 41.1197 26.0749 41.0803 26.0749 39.8327V34.5738L30.2764 28.1804C31.0331 27.121 29.4067 26.2894 28.6482 27.4992V27.501Z" fill="white"/>
<path d="M36.4078 27.9924C35.9541 26.7825 34.516 26.7825 34.1 27.9924L29.9379 39.4171C29.4089 40.817 31.1483 41.3457 31.6414 39.9459L32.7766 36.7303H37.62L38.7928 39.9835C39.2841 41.3457 40.9877 40.7399 40.534 39.4153L36.4096 27.9906L36.4078 27.9924ZM33.4185 35.0275L35.2351 30.0339L36.9763 35.0275H33.4185Z" fill="white"/>
<path d="M51.0149 28.1054V37.071L45.1116 27.8796C44.3172 26.6697 42.8037 26.9332 42.8037 28.1825V39.9083C42.8037 41.1182 44.6202 41.1182 44.6202 39.9083V30.4893L50.8266 40.136C51.4703 41.1577 52.8332 40.9677 52.8332 39.8707V28.1054C52.8332 26.7808 51.0167 26.7808 51.0167 28.1054H51.0149Z" fill="white"/>
</g>
<defs>
<linearGradient id="paint0_linear_240_2456" x1="98.9281" y1="33.8908" x2="61.1826" y2="33.8908" gradientUnits="userSpaceOnUse">
<stop stop-color="#0062FF"/>
<stop offset="1" stop-color="#1DAEFF"/>
</linearGradient>
<linearGradient id="paint1_linear_240_2456" x1="98.928" y1="34.6779" x2="72.3955" y2="34.6779" gradientUnits="userSpaceOnUse">
<stop stop-color="#0062FF"/>
<stop offset="1" stop-color="#1DAEFF"/>
</linearGradient>
<linearGradient id="paint2_linear_240_2456" x1="98.9286" y1="35.8626" x2="77.835" y2="35.8626" gradientUnits="userSpaceOnUse">
<stop stop-color="#0062FF"/>
<stop offset="1" stop-color="#1DAEFF"/>
</linearGradient>
<linearGradient id="paint3_linear_240_2456" x1="98.9287" y1="37.2784" x2="82.5781" y2="37.2784" gradientUnits="userSpaceOnUse">
<stop stop-color="#0062FF"/>
<stop offset="1" stop-color="#1DAEFF"/>
</linearGradient>
<linearGradient id="paint4_linear_240_2456" x1="98.683" y1="41.3045" x2="86.6074" y2="41.3045" gradientUnits="userSpaceOnUse">
<stop stop-color="#0062FF"/>
<stop offset="1" stop-color="#1DAEFF"/>
</linearGradient>
<linearGradient id="paint5_linear_240_2456" x1="98.9819" y1="33.8908" x2="61.1288" y2="33.8908" gradientUnits="userSpaceOnUse">
<stop stop-color="#0062FF"/>
<stop offset="1" stop-color="#1DAEFF"/>
</linearGradient>
<linearGradient id="paint6_linear_240_2456" x1="61.166" y1="12.6655" x2="98.9114" y2="12.6655" gradientUnits="userSpaceOnUse">
<stop stop-color="#00FFCE"/>
<stop offset="1" stop-color="#0FE8E8"/>
</linearGradient>
<linearGradient id="paint7_linear_240_2456" x1="28.7848" y1="11.8767" x2="87.6974" y2="11.8767" gradientUnits="userSpaceOnUse">
<stop stop-color="#00FFCE"/>
<stop offset="1" stop-color="#0FE8E8"/>
</linearGradient>
<linearGradient id="paint8_linear_240_2456" x1="28.7847" y1="11.4913" x2="84.595" y2="11.4913" gradientUnits="userSpaceOnUse">
<stop stop-color="#00FFCE"/>
<stop offset="1" stop-color="#0FE8E8"/>
</linearGradient>
<linearGradient id="paint9_linear_240_2456" x1="28.7847" y1="10.6937" x2="82.2584" y2="10.6937" gradientUnits="userSpaceOnUse">
<stop stop-color="#00FFCE"/>
<stop offset="1" stop-color="#0FE8E8"/>
</linearGradient>
<linearGradient id="paint10_linear_240_2456" x1="28.7847" y1="9.27769" x2="77.5154" y2="9.27769" gradientUnits="userSpaceOnUse">
<stop stop-color="#00FFCE"/>
<stop offset="1" stop-color="#0FE8E8"/>
</linearGradient>
<linearGradient id="paint11_linear_240_2456" x1="61.4103" y1="5.25196" x2="73.4858" y2="5.25196" gradientUnits="userSpaceOnUse">
<stop stop-color="#00FFCE"/>
<stop offset="1" stop-color="#0FE8E8"/>
</linearGradient>
<linearGradient id="paint12_linear_240_2456" x1="61.0763" y1="9.54849" x2="99.0011" y2="9.54849" gradientUnits="userSpaceOnUse">
<stop stop-color="#00FFCE"/>
<stop offset="1" stop-color="#0FE8E8"/>
</linearGradient>
<clipPath id="clip0_240_2456">
<rect width="99" height="46.2081" fill="white" transform="translate(0 0.15625)"/>
</clipPath>
</defs>
</svg>
