<svg width="99" height="47" viewBox="0 0 99 47" fill="none" xmlns="http://www.w3.org/2000/svg">
<g clip-path="url(#clip0_35_3110)">
<path d="M62.5293 40.6212C62.94 39.0941 63.4833 37.5992 64.1414 36.1564C66.2252 31.6216 69.5068 27.6317 73.6473 24.8105C73.8535 24.6707 74.0579 24.5398 74.2642 24.409C77.8165 22.1756 82.2601 21.0088 86.4329 21.387C88.3589 21.5591 90.222 22.0645 91.9184 22.9428C92.3667 23.1722 92.8024 23.4285 93.2221 23.7135C93.9035 24.1706 94.5544 24.7029 95.1516 25.3105C95.7541 25.9182 96.31 26.6047 96.8157 27.37C96.9842 27.6263 97.142 27.8844 97.2873 28.1407C98.8707 30.91 99.2401 33.7187 98.6806 36.2729C98.6196 36.5812 98.5407 36.8805 98.4475 37.1798C97.42 40.5011 94.8862 43.1969 91.7982 44.724C90.0839 45.57 88.3678 45.8963 86.6069 46.0271C85.4287 46.1113 84.2327 46.106 82.9953 46.106H66.573C64.7924 46.106 62.9705 46.2189 61.1934 46.106C61.0481 46.0594 62.4182 41.0514 62.5293 40.623V40.6212Z" fill="url(#paint0_linear_35_3110)"/>
<path opacity="0.33" d="M72.396 46.1041C77.2 42.3759 86.3777 34.2438 91.9206 22.9409C92.3689 23.1703 92.8046 23.4267 93.2242 23.7116C93.9056 24.1687 94.5566 24.7011 95.1537 25.3087C95.7563 25.9163 96.3121 26.6028 96.8178 27.3681C96.9864 27.6245 97.1442 27.8826 97.2894 28.1389C98.8729 30.9081 99.2423 33.7168 98.6828 36.271C98.6218 36.5793 98.5429 36.8786 98.4497 37.178C97.4222 40.4993 94.8883 43.195 91.8004 44.7222C90.0861 45.5682 88.37 45.8944 86.609 46.0252C85.4309 46.1095 84.2348 46.1041 82.9975 46.1041H72.3996H72.396Z" fill="url(#paint1_linear_35_3110)"/>
<path opacity="0.33" d="M77.8345 46.104C90.2704 42.521 94.4755 27.999 95.1534 25.3086C95.7559 25.9162 96.3118 26.6027 96.8175 27.3681C96.986 27.6244 97.1438 27.8825 97.2891 28.1388C98.8725 30.9081 99.2419 33.7167 98.6824 36.2709C98.6215 36.5792 98.5426 36.8785 98.4493 37.1779C97.4218 40.4992 94.888 43.195 91.8001 44.7221C90.0857 45.5681 88.3696 45.8943 86.6087 46.0252C85.4305 46.1094 84.2345 46.104 82.9971 46.104H77.8381H77.8345Z" fill="url(#paint2_linear_35_3110)"/>
<path opacity="0.33" d="M82.5776 46.1041C92.4332 41.7827 96.0501 32.7454 97.2892 28.1389C98.8726 30.9082 99.242 33.7169 98.6825 36.271C98.6216 36.5793 98.5427 36.8787 98.4494 37.178C97.4219 40.4993 94.8881 43.1951 91.8002 44.7222C90.0858 45.5682 88.3697 45.8944 86.6088 46.0253C85.4306 46.1095 84.2346 46.1041 82.9972 46.1041H82.5812H82.5776Z" fill="url(#paint3_linear_35_3110)"/>
<path opacity="0.33" d="M86.6069 46.0252C91.2281 43.134 95.8043 39.042 98.6825 36.2727C98.6215 36.581 98.5426 36.8803 98.4493 37.1797C97.4218 40.501 94.888 43.1967 91.8001 44.7239C90.0858 45.5699 88.3697 45.8961 86.6087 46.0269L86.6069 46.0252Z" fill="url(#paint4_linear_35_3110)"/>
<path d="M62.5293 40.6212C62.94 39.0941 63.4833 37.5992 64.1414 36.1564C66.2252 31.6216 69.5067 27.6317 73.6473 24.8105C73.8535 24.6707 74.0579 24.5398 74.2642 24.409C77.8165 22.1756 82.2601 21.0088 86.4329 21.387C88.3589 21.5591 90.222 22.0645 91.9184 22.9428C92.3667 23.1722 92.8024 23.4285 93.2221 23.7135C93.9035 24.1706 94.5544 24.7029 95.1516 25.3105C95.7541 25.9182 96.31 26.6047 96.8157 27.37C96.9842 27.6263 97.142 27.8844 97.2873 28.1407C98.8707 30.91 99.2401 33.7187 98.6806 36.2729C98.6196 36.5812 98.5407 36.8805 98.4475 37.1798C97.42 40.5011 94.8862 43.1969 91.7982 44.724C90.0839 45.57 88.3678 45.8963 86.6069 46.0271C85.4287 46.1113 84.2327 46.106 82.9953 46.106H66.573C64.7924 46.106 62.9705 46.2189 61.1934 46.106C61.0481 46.0594 62.4182 41.0514 62.5293 40.623V40.6212Z" stroke="url(#paint5_linear_35_3110)" stroke-width="0.6" stroke-miterlimit="10"/>
<path d="M97.5647 5.62282C97.1541 7.14995 96.6107 8.64481 95.9526 10.0877C93.8689 14.6225 90.5873 18.6123 86.4467 21.4336C86.2405 21.5734 86.0361 21.7042 85.8299 21.8351C82.2775 24.0684 77.8339 25.2353 73.6611 24.8571C71.7352 24.685 69.872 24.1795 68.1756 23.3013C67.7273 23.0718 67.2916 22.8155 66.872 22.5305C66.1905 22.0735 65.5396 21.5411 64.9425 20.9335C64.3399 20.3259 63.784 19.6394 63.2784 18.874C63.1098 18.6177 62.952 18.3596 62.8067 18.1033C61.2233 15.334 60.8539 12.5254 61.4134 9.97118C61.4744 9.66289 61.5533 9.36356 61.6465 9.06423C62.674 5.74291 65.2079 3.04714 68.2958 1.52002C70.0101 0.674005 71.7262 0.347789 73.4872 0.216943C74.6653 0.132701 75.8614 0.138078 77.0987 0.138078H93.521C95.3017 0.138078 97.1236 0.0251566 98.9006 0.138078C99.0459 0.18468 97.6759 5.19265 97.5647 5.62103V5.62282Z" fill="url(#paint6_linear_35_3110)"/>
<path d="M87.6992 0.139961C82.8952 3.86815 73.7175 12.0003 68.1747 23.3031C67.7264 23.0737 67.2906 22.8174 66.871 22.5324C66.1896 22.0754 65.5386 21.543 64.9415 20.9354C64.339 20.3278 63.7831 19.6413 63.2774 18.8759C63.1088 18.6196 62.951 18.3615 62.8058 18.1052C61.2224 15.3359 60.853 12.5272 61.4124 9.97307C61.4734 9.66477 61.5523 9.36544 61.6456 9.06611C62.6731 5.7448 65.2069 3.04903 68.2948 1.5219C70.0091 0.675889 71.7252 0.349672 73.4862 0.218827C74.6643 0.134584 75.8604 0.139961 77.0977 0.139961H87.6956H87.6992Z" fill="url(#paint7_linear_35_3110)"/>
<path d="M84.595 0.139961C77.4311 4.65681 70.2116 16.5315 66.869 22.5324C66.1876 22.0754 65.5367 21.543 64.9395 20.9354C64.337 20.3278 63.7811 19.6413 63.2754 18.8759C63.1069 18.6196 62.9491 18.3615 62.8038 18.1052C61.2204 15.3359 60.851 12.5272 61.4105 9.97307C61.4715 9.66477 61.5504 9.36544 61.6436 9.06611C62.6711 5.7448 65.2049 3.04903 68.2929 1.5219C70.0072 0.675889 71.7233 0.349672 73.4842 0.218827C74.6624 0.134584 75.8584 0.139961 77.0958 0.139961H84.5914H84.595Z" fill="url(#paint8_linear_35_3110)"/>
<path d="M82.2584 0.139961C69.8225 3.72297 65.6174 18.245 64.9395 20.9354C64.337 20.3278 63.7811 19.6413 63.2754 18.8759C63.1069 18.6196 62.9491 18.3615 62.8038 18.1052C61.2204 15.3359 60.851 12.5272 61.4105 9.97307C61.4715 9.66478 61.5504 9.36545 61.6436 9.06611C62.6711 5.7448 65.2049 3.04903 68.2929 1.5219C70.0072 0.675889 71.7233 0.349672 73.4842 0.218827C74.6624 0.134584 75.8584 0.139961 77.0958 0.139961H82.2549H82.2584Z" fill="url(#paint9_linear_35_3110)"/>
<path d="M77.5154 0.139961C67.6599 4.46144 64.0429 13.4987 62.8038 18.1052C61.2204 15.3359 60.851 12.5272 61.4105 9.97307C61.4715 9.66478 61.5504 9.36545 61.6436 9.06612C62.6711 5.7448 65.2049 3.04903 68.2929 1.5219C70.0072 0.675889 71.7233 0.349672 73.4842 0.218827C74.6624 0.134584 75.8584 0.139961 77.0958 0.139961H77.5118H77.5154Z" fill="url(#paint10_linear_35_3110)"/>
<path d="M73.4876 0.218833C68.8665 3.10997 64.2902 7.20202 61.4121 9.97128C61.4731 9.66299 61.552 9.36366 61.6452 9.06433C62.6727 5.74301 65.2066 3.04724 68.2945 1.52012C70.0088 0.674103 71.7249 0.347886 73.4858 0.217041L73.4876 0.218833Z" fill="url(#paint11_linear_35_3110)"/>
<path d="M97.5647 5.62282C97.1541 7.14995 96.6107 8.64481 95.9526 10.0877C93.8689 14.6225 90.5873 18.6123 86.4467 21.4336C86.2405 21.5734 86.0361 21.7042 85.8299 21.8351C82.2775 24.0684 77.8339 25.2353 73.6611 24.8571C71.7352 24.685 69.872 24.1795 68.1756 23.3013C67.7273 23.0718 67.2916 22.8155 66.872 22.5305C66.1905 22.0735 65.5396 21.5411 64.9425 20.9335C64.3399 20.3259 63.784 19.6394 63.2784 18.874C63.1098 18.6177 62.952 18.3596 62.8067 18.1033C61.2233 15.334 60.8539 12.5254 61.4134 9.97118C61.4744 9.66289 61.5533 9.36356 61.6465 9.06423C62.674 5.74291 65.2079 3.04714 68.2958 1.52002C70.0101 0.674005 71.7262 0.347789 73.4872 0.216943C74.6653 0.132701 75.8614 0.138078 77.0987 0.138078H93.521C95.3017 0.138078 97.1236 0.0251566 98.9006 0.138078C99.0459 0.18468 97.6759 5.19265 97.5647 5.62103V5.62282Z" stroke="url(#paint12_linear_35_3110)" stroke-miterlimit="10"/>
<path opacity="0.35" d="M85.8216 21.7865C86.0278 21.6557 86.2323 21.5248 86.4331 21.385C82.2603 21.0068 77.8149 22.1737 74.2643 24.407C74.0581 24.5379 73.8537 24.6687 73.6475 24.8085C77.8203 25.1867 82.2657 24.0234 85.8216 21.7865Z" fill="#0E28F5"/>
<path d="M19.8686 22.5394C22.7449 22.5018 25.4688 20.3832 25.5836 16.0707V10.8512C25.5836 9.67898 23.88 9.71662 23.88 10.8136V15.8448C23.88 18.8328 22.6302 20.6861 19.8686 20.7632C17.2953 20.6879 15.5918 19.098 15.8195 16.3001L16.1226 12.3281C16.1979 11.1936 14.4943 11.0036 14.419 12.1382L14.1159 16.3001C13.9653 20.4621 16.8793 22.5789 19.8686 22.5412V22.5394Z" fill="#0062FF"/>
<path d="M20.2847 7.63574V7.02991C20.2847 5.85768 18.5435 5.89532 18.5435 7.02991V7.63574C18.5435 8.80797 20.2847 8.80797 20.2847 7.63574Z" fill="#0062FF"/>
<path d="M34.6665 22.4644V21.8585C34.6665 20.6863 32.9253 20.7239 32.9253 21.8585V22.4644C32.9253 23.6366 34.6665 23.6366 34.6665 22.4644Z" fill="#0062FF"/>
<path d="M37.0137 22.4644V21.8585C37.0137 20.6863 35.2725 20.7239 35.2725 21.8585V22.4644C35.2725 23.6366 37.0137 23.6366 37.0137 22.4644Z" fill="#0062FF"/>
<path d="M46.7006 8.5444L50.0683 8.05329C50.7121 7.94036 50.5973 6.9187 50.0683 6.95634L46.6235 7.44745C45.9421 7.52273 46.0945 8.65732 46.6989 8.5444H46.7006Z" fill="#0062FF"/>
<path d="M51.4706 10.0572V13.651C51.4706 16.336 50.8645 17.5853 49.2004 17.5853V10.5484C49.2004 9.45142 47.5345 9.45142 47.5345 10.5484V14.558C47.3444 17.0171 46.55 17.5835 43.4477 17.5835V11.7959C43.4477 10.6989 41.7065 10.6989 41.7065 11.7959V15.8431C41.6688 17.3183 40.7973 17.5835 40.1177 17.5835H38.2635C37.2414 17.5835 37.0908 17.2053 37.0908 15.6549V10.8513C37.0908 9.67905 35.3872 9.71669 35.3872 10.8136V16.0331C35.3872 16.9795 34.8187 17.5835 34.0244 17.5835H31.0727C29.4068 17.5835 28.9155 17.433 28.9155 16.146V6.46169C28.9155 5.28946 27.2119 5.28946 27.2119 6.46169V16.4095C27.2496 18.3758 28.46 19.2845 30.2389 19.2845H34.0244C34.8941 19.2845 35.6508 19.0192 36.1439 18.5658C36.5976 19.0569 37.279 19.2845 38.2635 19.2845H40.1177C40.6862 19.2845 41.2528 19.1716 41.7065 18.944V19.2845H43.5983C45.3396 19.2845 46.6253 19.0192 47.5345 18.3758V19.2845C51.6589 19.3974 53.1347 17.9976 53.1347 13.6474V10.0537C53.1347 8.99435 51.4688 8.99435 51.4688 10.0537L51.4706 10.0572Z" fill="#0062FF"/>
<path d="M4.99575 32.7921C3.3693 32.3386 2.2324 31.9604 2.2324 30.6734C2.2324 29.3865 3.21687 28.6301 4.73035 28.6301C6.65985 28.6301 6.96291 29.6518 7.71965 29.6518C8.17333 29.6518 8.51404 29.2736 8.51404 28.7448V28.6695C8.51404 28.1013 8.24865 27.7231 7.60488 27.4597C6.92346 27.1568 5.93898 26.9309 4.72856 26.9309C2.04232 26.9309 0.186335 28.2179 0.186335 30.7147C0.186335 32.5304 1.20847 33.665 3.63111 34.4213C5.25756 34.9125 6.99877 35.1401 6.99877 36.8429C6.99877 38.128 5.90132 38.9239 4.16011 38.9239C1.81458 38.9239 1.69981 37.5993 0.8301 37.5993C0.301101 37.5993 -0.00195312 37.9775 -0.00195312 38.5062V38.6192C-0.00195312 39.1479 0.263443 39.6032 0.8301 39.9437C1.51152 40.3596 2.7596 40.6248 4.23542 40.6248C7.37714 40.6248 8.89062 39.1873 8.89062 36.8429C8.89062 34.4984 7.90614 33.6273 4.99216 32.7956L4.99575 32.7921Z" fill="#0062FF"/>
<path d="M16.9926 27.8361C16.5389 26.6262 15.1008 26.6262 14.6848 27.8361L10.5209 39.2609C9.9919 40.6607 11.7313 41.1895 12.2245 39.7896L13.3596 36.5741H18.203L19.3758 39.8273C19.8672 41.1895 21.5707 40.5837 21.117 39.2591L16.9926 27.8343V27.8361ZM14.0033 34.8713L15.8199 29.8777L17.5611 34.8713H14.0033Z" fill="#0062FF"/>
<path d="M28.6482 27.345L25.0904 32.8674L21.4197 27.345C20.7383 26.3234 19.1871 26.9668 19.8309 28.0261L24.183 34.4573V39.6767C24.183 40.9637 26.0749 40.9242 26.0749 39.6767V34.4178L30.2764 28.0243C31.0331 26.965 29.4067 26.1334 28.6482 27.3432V27.345Z" fill="#0062FF"/>
<path d="M36.4073 27.8361C35.9536 26.6262 34.5155 26.6262 34.0995 27.8361L29.9374 39.2609C29.4084 40.6607 31.1478 41.1895 31.641 39.7896L32.7761 36.5741H37.6195L38.7923 39.8273C39.2837 41.1895 40.9872 40.5837 40.5335 39.2591L36.4091 27.8343L36.4073 27.8361ZM33.418 34.8713L35.2346 29.8777L36.9758 34.8713H33.418Z" fill="#0062FF"/>
<path d="M51.0153 27.9489V36.9145L45.1121 27.7231C44.3177 26.5132 42.8042 26.7767 42.8042 28.026V39.7519C42.8042 40.9617 44.6207 40.9617 44.6207 39.7519V30.3328L50.8271 39.9795C51.4708 41.0012 52.8337 40.8112 52.8337 39.7142V27.9489C52.8337 26.6243 51.0171 26.6243 51.0171 27.9489H51.0153Z" fill="#0062FF"/>
</g>
<defs>
<linearGradient id="paint0_linear_35_3110" x1="98.9281" y1="33.7348" x2="61.1826" y2="33.7348" gradientUnits="userSpaceOnUse">
<stop stop-color="#0062FF"/>
<stop offset="1" stop-color="#1DAEFF"/>
</linearGradient>
<linearGradient id="paint1_linear_35_3110" x1="98.9285" y1="34.5216" x2="72.396" y2="34.5216" gradientUnits="userSpaceOnUse">
<stop stop-color="#0062FF"/>
<stop offset="1" stop-color="#1DAEFF"/>
</linearGradient>
<linearGradient id="paint2_linear_35_3110" x1="98.9281" y1="35.7063" x2="77.8345" y2="35.7063" gradientUnits="userSpaceOnUse">
<stop stop-color="#0062FF"/>
<stop offset="1" stop-color="#1DAEFF"/>
</linearGradient>
<linearGradient id="paint3_linear_35_3110" x1="98.9282" y1="37.1224" x2="82.5776" y2="37.1224" gradientUnits="userSpaceOnUse">
<stop stop-color="#0062FF"/>
<stop offset="1" stop-color="#1DAEFF"/>
</linearGradient>
<linearGradient id="paint4_linear_35_3110" x1="98.6825" y1="41.148" x2="86.6069" y2="41.148" gradientUnits="userSpaceOnUse">
<stop stop-color="#0062FF"/>
<stop offset="1" stop-color="#1DAEFF"/>
</linearGradient>
<linearGradient id="paint5_linear_35_3110" x1="98.9819" y1="33.7348" x2="61.1288" y2="33.7348" gradientUnits="userSpaceOnUse">
<stop stop-color="#0062FF"/>
<stop offset="1" stop-color="#1DAEFF"/>
</linearGradient>
<linearGradient id="paint6_linear_35_3110" x1="61.166" y1="12.5092" x2="98.9114" y2="12.5092" gradientUnits="userSpaceOnUse">
<stop stop-color="#00FFCE"/>
<stop offset="1" stop-color="#0FE8E8"/>
</linearGradient>
<linearGradient id="paint7_linear_35_3110" x1="28.7848" y1="11.7207" x2="87.6974" y2="11.7207" gradientUnits="userSpaceOnUse">
<stop stop-color="#00FFCE"/>
<stop offset="1" stop-color="#0FE8E8"/>
</linearGradient>
<linearGradient id="paint8_linear_35_3110" x1="28.7847" y1="11.3353" x2="84.595" y2="11.3353" gradientUnits="userSpaceOnUse">
<stop stop-color="#00FFCE"/>
<stop offset="1" stop-color="#0FE8E8"/>
</linearGradient>
<linearGradient id="paint9_linear_35_3110" x1="28.7847" y1="10.5377" x2="82.2584" y2="10.5377" gradientUnits="userSpaceOnUse">
<stop stop-color="#00FFCE"/>
<stop offset="1" stop-color="#0FE8E8"/>
</linearGradient>
<linearGradient id="paint10_linear_35_3110" x1="28.7847" y1="9.12168" x2="77.5154" y2="9.12168" gradientUnits="userSpaceOnUse">
<stop stop-color="#00FFCE"/>
<stop offset="1" stop-color="#0FE8E8"/>
</linearGradient>
<linearGradient id="paint11_linear_35_3110" x1="61.4103" y1="5.09595" x2="73.4858" y2="5.09595" gradientUnits="userSpaceOnUse">
<stop stop-color="#00FFCE"/>
<stop offset="1" stop-color="#0FE8E8"/>
</linearGradient>
<linearGradient id="paint12_linear_35_3110" x1="61.0763" y1="9.39224" x2="99.0011" y2="9.39224" gradientUnits="userSpaceOnUse">
<stop stop-color="#00FFCE"/>
<stop offset="1" stop-color="#0FE8E8"/>
</linearGradient>
<clipPath id="clip0_35_3110">
<rect width="99" height="46.2081" fill="white"/>
</clipPath>
</defs>
</svg>
