<svg width="44" height="44" viewBox="0 0 44 44" fill="none" xmlns="http://www.w3.org/2000/svg">
<path d="M7.23047 32.0908C10.5451 36.9308 16.0745 39.8862 21.9998 39.8862C27.9251 39.8862 33.4471 36.9308 36.7618 32.0908C32.2005 34.4082 27.1405 35.6255 21.9998 35.6255C16.8591 35.6255 11.7991 34.4082 7.23047 32.0908Z" fill="#FF5F5F"/>
<path d="M36.7618 11.9091C33.4471 7.06177 27.9251 4.11377 21.9998 4.11377C16.0745 4.11377 10.5451 7.06177 7.23047 11.9091C11.7991 9.58443 16.8591 8.37444 21.9998 8.37444C27.1405 8.37444 32.2005 9.58443 36.7618 11.9091Z" fill="#FF5F5F"/>
<path d="M38.0017 14.2559C28.1603 8.36719 15.8477 8.36719 5.99899 14.2559C4.53966 15.1359 3.66699 16.7345 3.66699 18.4359V25.5639C3.66699 27.2652 4.53966 28.8639 5.99899 29.7365C15.8403 35.6252 28.153 35.6252 38.0017 29.7365C39.461 28.8639 40.3337 27.2652 40.3337 25.5639V18.4359C40.3337 16.7345 39.461 15.1359 38.0017 14.2559ZM11.5577 19.9905C11.5577 18.1279 13.0683 16.6172 14.931 16.6172C16.7937 16.6172 18.3043 18.1279 18.3043 19.9905C18.3043 21.8532 16.7937 23.3639 14.931 23.3639C13.0683 23.3639 11.5577 21.8459 11.5577 19.9905ZM26.2977 28.5632C24.9557 29.2452 23.4743 29.5899 22.0003 29.5899C20.5263 29.5899 19.0523 29.2452 17.703 28.5632C17.329 28.3725 17.175 27.9105 17.373 27.5365C17.5637 27.1625 18.0257 27.0085 18.3997 27.2065C20.6583 28.3579 23.3497 28.3579 25.601 27.2065C25.975 27.0159 26.437 27.1625 26.6277 27.5365C26.8183 27.9179 26.6717 28.3725 26.2977 28.5632ZM29.0697 23.3565C27.207 23.3565 25.6963 21.8459 25.6963 19.9832C25.6963 18.1205 27.207 16.6099 29.0697 16.6099C30.9323 16.6099 32.443 18.1205 32.443 19.9832C32.443 21.8459 30.9323 23.3565 29.0697 23.3565Z" fill="#FF5F5F"/>
</svg>
