<svg width="52" height="51" viewBox="0 0 52 51" fill="none" xmlns="http://www.w3.org/2000/svg">
<path d="M23.7701 28.8764C23.7701 28.3057 23.6935 27.8143 23.5402 27.4022C23.387 26.99 23.1111 26.5938 22.7126 26.2133C22.3142 25.8012 21.7471 25.3098 21.0115 24.7391C19.6628 23.6929 18.6207 22.726 17.8851 21.8383C17.1801 20.9506 16.6897 20.0788 16.4138 19.2228C16.1379 18.3668 16 17.4475 16 16.4647C16 13.8016 16.9042 11.7251 18.7126 10.2351C20.5211 8.74502 23.0192 8 26.2069 8C27.7395 8 29.3793 8.28533 31.1264 8.85598C32.9042 9.42663 34.5287 10.1716 36 11.091L33.4253 16.8451C32.0766 16.1159 30.7893 15.5294 29.5632 15.0856C28.3372 14.6101 27.249 14.3723 26.2989 14.3723C25.2874 14.3723 24.5364 14.6259 24.046 15.1332C23.5862 15.6087 23.3563 16.2269 23.3563 16.9878C23.3563 17.5584 23.4483 18.0657 23.6322 18.5095C23.8467 18.9216 24.1839 19.3655 24.6437 19.841C25.1341 20.2849 25.7625 20.808 26.5287 21.4103C27.5402 22.2029 28.3372 22.9796 28.9195 23.7405C29.5326 24.4697 29.977 25.2305 30.2529 26.0231C30.5287 26.8157 30.6667 27.6716 30.6667 28.591V30.5883H23.7701V28.8764ZM26.9885 43C25.6092 43 24.5364 42.6196 23.7701 41.8587C23.0345 41.0978 22.6667 40.0833 22.6667 38.8152C22.6667 37.4837 23.0345 36.4534 23.7701 35.7242C24.5364 34.995 25.6092 34.6304 26.9885 34.6304C28.3372 34.6304 29.3946 34.995 30.1609 35.7242C30.9272 36.4216 31.3103 37.452 31.3103 38.8152C31.3103 40.1784 30.9272 41.2246 30.1609 41.9538C29.3946 42.6513 28.3372 43 26.9885 43Z" fill="#FF7A00"/>
</svg>
