<svg width="13" height="18" viewBox="0 0 13 18" fill="none" xmlns="http://www.w3.org/2000/svg">
<path fill-rule="evenodd" clip-rule="evenodd" d="M5.45825 0.666748H7.12492C9.48194 0.666748 10.6605 0.666748 11.3927 1.39898C12.1249 2.13121 12.1249 3.30973 12.1249 5.66675V12.3334C12.1249 14.6904 12.1249 15.8689 11.3927 16.6012C10.6605 17.3334 9.48194 17.3334 7.12492 17.3334H5.45825C3.10123 17.3334 1.92272 17.3334 1.19049 16.6012C0.458252 15.8689 0.458252 14.6904 0.458252 12.3334V5.66675C0.458252 3.30973 0.458252 2.13121 1.19049 1.39898C1.92272 0.666748 3.10123 0.666748 5.45825 0.666748ZM3.16659 9.83342C3.16659 9.48824 3.44641 9.20842 3.79159 9.20842H8.79159C9.13676 9.20842 9.41659 9.48824 9.41659 9.83342C9.41659 10.1786 9.13676 10.4584 8.79159 10.4584H3.79159C3.44641 10.4584 3.16659 10.1786 3.16659 9.83342ZM3.16659 6.50008C3.16659 6.1549 3.44641 5.87508 3.79159 5.87508H8.79159C9.13676 5.87508 9.41659 6.1549 9.41659 6.50008C9.41659 6.84526 9.13676 7.12508 8.79159 7.12508H3.79159C3.44641 7.12508 3.16659 6.84526 3.16659 6.50008ZM3.16659 13.1667C3.16659 12.8216 3.44641 12.5417 3.79159 12.5417H6.29159C6.63676 12.5417 6.91659 12.8216 6.91659 13.1667C6.91659 13.5119 6.63676 13.7917 6.29159 13.7917H3.79159C3.44641 13.7917 3.16659 13.5119 3.16659 13.1667Z" fill="#A9A9A9"/>
</svg>
