<svg width="18" height="18" viewBox="0 0 18 18" fill="none" xmlns="http://www.w3.org/2000/svg">
<path fill-rule="evenodd" clip-rule="evenodd" d="M0.366943 9.00008V5.66675C0.366943 3.30973 0.366943 2.13121 1.09918 1.39898C1.83141 0.666748 3.00992 0.666748 5.36694 0.666748H12.0336C14.3906 0.666748 15.5691 0.666748 16.3014 1.39898C17.0336 2.13121 17.0336 3.30973 17.0336 5.66675V9.00008C17.0336 11.3571 17.0336 12.5356 16.3014 13.2678C15.7627 13.8065 14.9826 13.9489 13.6694 13.9866C13.6664 13.3734 13.4534 12.761 13.0304 12.2647C13.0065 12.2366 12.992 12.2017 12.9891 12.165C12.8846 10.8554 11.8447 9.8155 10.5351 9.71099C10.4983 9.70806 10.4634 9.6936 10.4353 9.66968C9.43545 8.81757 7.9648 8.81757 6.9649 9.66968C6.93683 9.6936 6.90193 9.70806 6.86516 9.71099C5.5556 9.8155 4.51569 10.8554 4.41119 12.165C4.40825 12.2017 4.3938 12.2366 4.36988 12.2647C3.9469 12.761 3.73389 13.3734 3.73083 13.9865C2.41786 13.9489 1.63779 13.8065 1.09918 13.2678C0.366943 12.5356 0.366943 11.3571 0.366943 9.00008ZM5.57528 4.00008C5.57528 3.6549 5.8551 3.37508 6.20028 3.37508H11.2003C11.5455 3.37508 11.8253 3.6549 11.8253 4.00008C11.8253 4.34526 11.5455 4.62508 11.2003 4.62508H6.20028C5.8551 4.62508 5.57528 4.34526 5.57528 4.00008ZM4.53361 6.29175C4.18843 6.29175 3.90861 6.57157 3.90861 6.91675C3.90861 7.26193 4.18843 7.54175 4.53361 7.54175H12.8669C13.2121 7.54175 13.4919 7.26193 13.4919 6.91675C13.4919 6.57157 13.2121 6.29175 12.8669 6.29175H4.53361Z" fill="#A9A9A9"/>
<path fill-rule="evenodd" clip-rule="evenodd" d="M9.62457 10.6211C9.09187 10.1671 8.30838 10.1671 7.77567 10.6211C7.5474 10.8156 7.26357 10.9332 6.9646 10.957C6.26692 11.0127 5.7129 11.5667 5.65723 12.2644C5.63337 12.5634 5.5158 12.8472 5.32127 13.0755C4.8673 13.6082 4.8673 14.3917 5.32127 14.9244C5.5158 15.1527 5.63337 15.4365 5.65723 15.7355C5.7129 16.4331 6.26692 16.9872 6.9646 17.0428C7.26357 17.0667 7.5474 17.1842 7.77567 17.3788C8.30838 17.8328 9.09187 17.8328 9.62457 17.3788C9.85285 17.1842 10.1367 17.0667 10.4356 17.0428C11.1333 16.9872 11.6873 16.4331 11.743 15.7355C11.7669 15.4365 11.8844 15.1527 12.079 14.9244C12.5329 14.3917 12.5329 13.6082 12.079 13.0755C11.8844 12.8472 11.7669 12.5634 11.743 12.2644C11.6873 11.5667 11.1333 11.0127 10.4356 10.957C10.1367 10.9332 9.85285 10.8156 9.62457 10.6211ZM10.3767 13.6237C10.6291 13.3881 10.6427 12.9926 10.4072 12.7403C10.1717 12.488 9.77617 12.4743 9.52383 12.7098L8.16456 13.9785L7.87673 13.7098C7.62438 13.4743 7.22889 13.488 6.99337 13.7403C6.75785 13.9926 6.77149 14.3881 7.02383 14.6237L7.73812 15.2903C7.97825 15.5144 8.35089 15.5144 8.59101 15.2903L10.3767 13.6237Z" fill="#A9A9A9"/>
</svg>
