<svg width="52" height="51" viewBox="0 0 52 51" fill="none" xmlns="http://www.w3.org/2000/svg">
<path d="M34.2322 12.0781C34.2322 14.3555 33.4502 16.2633 31.8947 17.8273C30.3393 19.3828 28.4229 20.1648 26.1455 20.1648C23.8768 20.1648 21.9604 19.3828 20.4049 17.8273C18.8494 16.2719 18.0674 14.3555 18.0674 12.0781C18.0674 9.80078 18.8494 7.89297 20.4049 6.32891C21.9604 4.76484 23.8854 4 26.1541 4C28.4314 4 30.3393 4.78203 31.9033 6.3375C33.4674 7.89297 34.2408 9.80937 34.2322 12.0781Z" fill="#0062FF"/>
<path d="M44.8887 20.6201V39.217C44.8887 40.2396 44.098 41.0818 43.084 41.1506C40.291 41.3482 37.541 41.9842 34.9457 43.0326C32.1613 44.1498 29.5574 45.6795 27.2199 47.5701C26.5066 48.1373 25.5012 48.1373 24.7879 47.5701C22.4504 45.6795 19.8465 44.1498 17.0621 43.0326C14.4668 41.9842 11.7168 41.3482 8.92383 41.1506C7.90977 41.0818 7.11914 40.231 7.11914 39.217V20.6201C7.12773 19.5459 7.9957 18.6779 9.06992 18.6779C9.13867 18.6779 9.19883 18.6779 9.26758 18.6865C11.8285 18.9443 14.3723 19.6576 16.9074 20.8349C20.1387 22.3389 23.1809 24.4357 26.0082 27.1342C28.8441 24.4443 31.8777 22.3389 35.109 20.8349C37.6355 19.6576 40.1879 18.9443 42.7488 18.6865C43.8145 18.5748 44.777 19.3482 44.8887 20.4224C44.8801 20.4912 44.8887 20.5599 44.8887 20.6201Z" fill="#0062FF"/>
</svg>
