<svg width="24" height="24" viewBox="0 0 24 24" fill="none" xmlns="http://www.w3.org/2000/svg">
<path d="M18.1123 6.1123C17.1144 6.1123 16.1295 6.3667 15.2635 6.84716C14.7811 7.11402 14.3391 7.44716 13.9488 7.8374L11.9998 9.78646L10.0502 7.83693C9.66 7.4467 9.21745 7.11356 8.73792 6.84862C7.87008 6.3667 6.88462 6.1123 5.88769 6.1123C2.64094 6.1123 0 8.75376 0 12C0 15.2467 2.64094 17.8877 5.88769 17.8877C6.88514 17.8877 7.87055 17.6328 8.73506 17.1528C9.21745 16.8869 9.66 16.5533 10.0507 16.1626L11.9999 14.2134L13.9493 16.1626C14.34 16.5543 14.7831 16.8874 15.2616 17.1519C16.1285 17.6333 17.1144 17.8877 18.1123 17.8877C21.3585 17.8877 24 15.2467 24 12C24 8.75376 21.3585 6.1123 18.1123 6.1123ZM7.83745 13.9488C7.65408 14.1321 7.44722 14.2881 7.21875 14.4139C6.8093 14.6419 6.36098 14.7571 5.88769 14.7571C4.36753 14.7571 3.13055 13.5202 3.13055 12C3.13055 10.4798 4.36748 9.24285 5.88769 9.24285C6.36098 9.24285 6.8093 9.35854 7.22114 9.58701C7.44675 9.71132 7.65413 9.86779 7.83745 10.0507L9.78623 12L7.83745 13.9488ZM18.1123 14.7576C17.6385 14.7576 17.1902 14.6424 16.7775 14.413C16.5528 14.2891 16.3464 14.1331 16.1626 13.9493L14.2138 12L16.1631 10.0512C16.3459 9.86784 16.5528 9.71184 16.7804 9.58607C17.1903 9.35901 17.6386 9.24337 18.1124 9.24337C19.633 9.24337 20.8695 10.4803 20.8695 12.0005C20.8695 13.5207 19.6329 14.7576 18.1123 14.7576Z" fill="#414141"/>
</svg>
