<svg width="26" height="26" viewBox="0 0 26 26" fill="none" xmlns="http://www.w3.org/2000/svg">
<path d="M17.3069 0H8.65597C7.12928 0.00173118 5.89214 1.23888 5.89062 2.76556V23.2346C5.89214 24.7613 7.12928 25.9984 8.65597 25.9999H17.3069C18.8336 25.9984 20.0707 24.7613 20.0724 23.2346V2.76556C20.0707 1.23888 18.8336 0.00173118 17.3069 0ZM12.9815 23.6364C12.3287 23.6364 11.7996 23.1073 11.7996 22.4545C11.7996 21.8018 12.3287 21.2727 12.9815 21.2727C13.6342 21.2727 14.1633 21.8018 14.1633 22.4545C14.1633 23.1073 13.6342 23.6364 12.9815 23.6364ZM14.7543 3.54545H11.2088C10.8825 3.54545 10.6178 3.2808 10.6178 2.95447C10.6178 2.62815 10.8825 2.36371 11.2088 2.36371H14.7543C15.0806 2.36371 15.345 2.62815 15.345 2.95447C15.345 3.2808 15.0806 3.54545 14.7543 3.54545Z" fill="#414141"/>
</svg>
