<svg xmlns="http://www.w3.org/2000/svg" width="17" height="18" viewBox="0 0 17 18" fill="none">
<g clip-path="url(#clip0_47_2990)">
<path d="M14.175 1.15015C14.7252 1.15015 15.2527 1.36867 15.6418 1.75757L15.7805 1.90991C16.083 2.27914 16.2502 2.74384 16.2502 3.22534V10.575C16.2502 11.0565 16.083 11.5212 15.7805 11.8904L15.6418 12.0427C15.3014 12.383 14.855 12.5932 14.3801 12.6404L14.175 12.6501H11.9729L10.7024 13.9255L10.6995 13.9275C10.6203 14.006 10.5287 14.0699 10.429 14.1189L12.01 14.9109L12.0129 14.9119L12.1008 14.9626C12.2986 15.0893 12.4477 15.2806 12.5217 15.5056L12.5491 15.6033C12.6001 15.8327 12.5705 16.074 12.4641 16.2859V16.2869C12.4002 16.4135 12.3109 16.5252 12.2024 16.615L12.0872 16.697C11.9271 16.7959 11.743 16.8482 11.5549 16.8494L11.5559 16.8503L11.553 16.8494L11.552 16.8503L11.551 16.8494C11.3908 16.8505 11.2333 16.8125 11.0911 16.739V16.74L9.27368 15.8328C9.249 15.8732 9.22292 15.913 9.19263 15.95L9.12524 16.0251C8.93302 16.2174 8.6715 16.325 8.39966 16.325C8.16198 16.3249 7.93252 16.2428 7.75024 16.0935L7.67505 16.0251C7.61693 15.967 7.5677 15.9018 7.52563 15.8328L5.70923 16.74L5.69458 16.7478L5.67896 16.7537C5.46978 16.8408 5.238 16.8564 5.02075 16.7986L4.92896 16.7693C4.71655 16.6908 4.53702 16.5443 4.41724 16.3542L4.36938 16.2703C4.25271 16.0394 4.22754 15.7727 4.29907 15.5242L4.33032 15.4324C4.41257 15.2233 4.56207 15.0462 4.7561 14.9294L4.77271 14.9197L4.79028 14.9109L6.36938 14.1189C6.27014 14.07 6.17863 14.0056 6.09985 13.9275L6.0979 13.9255L4.82739 12.6501H2.62524C2.1437 12.6501 1.67906 12.483 1.30981 12.1804L1.15747 12.0427C0.768332 11.6536 0.550049 11.1253 0.550049 10.575V3.22534L0.559814 3.02026C0.606932 2.54516 0.816917 2.09812 1.15747 1.75757C1.54661 1.36843 2.07492 1.15015 2.62524 1.15015H14.175ZM4.70728 8.98218C4.70268 8.98677 4.70054 8.99327 4.70044 8.99976C4.70044 9.00639 4.70259 9.01362 4.70728 9.01831L4.72485 9.02515H9.97485C9.9813 9.02515 9.98779 9.02276 9.99243 9.01831L10.0002 8.99976L9.99243 8.98218C9.98777 8.97767 9.98135 8.97534 9.97485 8.97534H4.72485L4.70728 8.98218ZM4.70728 6.88257C4.70265 6.88725 4.70044 6.89356 4.70044 6.90015C4.70044 6.90673 4.70265 6.91305 4.70728 6.91772L4.72485 6.92554H7.34985C7.35644 6.92554 7.36275 6.92235 7.36743 6.91772C7.37212 6.91304 7.37524 6.90678 7.37524 6.90015C7.37524 6.89352 7.37212 6.88726 7.36743 6.88257C7.36275 6.87794 7.35644 6.87476 7.34985 6.87476H4.72485L4.70728 6.88257ZM4.70728 4.78198C4.70259 4.78667 4.70044 4.79391 4.70044 4.80054C4.70054 4.80702 4.70268 4.81352 4.70728 4.81812L4.72485 4.82495H12.0754C12.0819 4.82485 12.0884 4.82271 12.093 4.81812L12.0999 4.80054L12.093 4.78198C12.0884 4.77745 12.0819 4.77525 12.0754 4.77515H4.72485L4.70728 4.78198Z" fill="#0062FF" stroke="#EBF3FF" style="&#10;    fill: #A9A9A9;&#10;"/>
</g>
<defs>
<clipPath id="clip0_47_2990">
<rect width="16.8" height="16.8" fill="white" transform="translate(0 0.600098)"/>
</clipPath>
</defs>
</svg>