<svg width="24" height="24" viewBox="0 0 24 24" fill="none" xmlns="http://www.w3.org/2000/svg">
<path d="M3 21.75H4.875C6.11251 21.75 7.125 20.7374 7.125 19.5V12.825C7.125 11.58 6.11251 10.575 4.875 10.575H3C1.76249 10.575 0.75 11.58 0.75 12.825V19.5C0.75 20.7374 1.76249 21.75 3 21.75Z" fill="#414141"/>
<path d="M12.9375 6.4126H11.0625C9.82499 6.4126 8.8125 7.42508 8.8125 8.6626V19.5001C8.8125 20.7376 9.82499 21.7501 11.0625 21.7501H12.9375C14.175 21.7501 15.1875 20.7376 15.1875 19.5001V8.6626C15.1875 7.42508 14.175 6.4126 12.9375 6.4126Z" fill="#414141"/>
<path d="M21 2.25H19.125C17.8875 2.25 16.875 3.26249 16.875 4.5V19.5C16.875 20.7375 17.8875 21.75 19.125 21.75H21C22.2375 21.75 23.25 20.7375 23.25 19.5V4.5C23.25 3.26249 22.2375 2.25 21 2.25Z" fill="#414141"/>
</svg>
