<svg width="32" height="32" viewBox="0 0 32 32" fill="none" xmlns="http://www.w3.org/2000/svg">
<g clip-path="url(#clip0_254_791)">
<path fill-rule="evenodd" clip-rule="evenodd" d="M19.2288 29.0771C19.2288 27.9711 18.3321 27.0745 17.2261 27.0745H14.7739C14.2428 27.0745 13.7334 27.2855 13.3578 27.6611C12.9823 28.0366 12.7712 28.546 12.7712 29.0771C12.7712 30.1831 13.6679 31.0798 14.7739 31.0798H17.2261C18.3321 31.0798 19.2288 30.1831 19.2288 29.0771ZM4.21006 23.9132C4.54456 23.9388 4.94925 23.9535 5.35575 23.9296C5.57231 25.0279 6.11031 26.0465 6.91337 26.8496C7.9795 27.9157 9.42544 28.5146 10.9331 28.5146H11.6973C11.6636 28.699 11.6462 28.8872 11.6462 29.0771C11.6462 29.2692 11.6636 29.4573 11.6967 29.6396H10.9331C9.12706 29.6396 7.39494 28.9222 6.11788 27.6451C5.09906 26.6263 4.43638 25.3178 4.21006 23.9132ZM3.63781 22.7161C2.74963 22.5664 1.92313 22.1441 1.27794 21.4989C0.459688 20.6806 0 19.5708 0 18.4136V15.7547C0 14.5975 0.459688 13.4877 1.27794 12.6695C2.09619 11.8512 3.206 11.3915 4.36319 11.3915H4.65363C5.11788 5.53171 10.0205 0.920898 16 0.920898C21.9795 0.920898 26.8821 5.53171 27.3464 11.3915H27.6368C28.794 11.3915 29.9038 11.8512 30.7221 12.6695C31.5403 13.4877 32 14.5975 32 15.7547V18.4136C32 19.5708 31.5403 20.6806 30.7221 21.4989C29.9038 22.3172 28.794 22.7769 27.6368 22.7769H26.3493C25.8153 22.7769 25.3824 22.344 25.3824 21.81V12.3033C25.3824 7.12152 21.1817 2.9209 16 2.9209C10.8183 2.9209 6.61763 7.12152 6.61763 12.3033V21.81C6.61763 22.187 6.40181 22.5137 6.08694 22.6731C5.22019 22.9739 3.876 22.7563 3.63781 22.7161Z" fill="#0062FF"/>
</g>
<defs>
<clipPath id="clip0_254_791">
<rect width="32" height="32" fill="white"/>
</clipPath>
</defs>
</svg>
