<svg width="52" height="51" viewBox="0 0 52 51" fill="none" xmlns="http://www.w3.org/2000/svg">
<path fill-rule="evenodd" clip-rule="evenodd" d="M29.9191 12.3789C24.9802 19.6607 15.8255 22.0219 15.8255 22.0219C15.1233 22.2017 14.408 21.7777 14.2282 21.0756C14.0484 20.3734 14.4723 19.6581 15.1745 19.4782C15.1745 19.4782 23.8921 17.2693 28.1538 10.2724L25.5721 10.2501C24.8476 10.2435 24.2649 9.65024 24.2714 8.92574C24.278 8.20124 24.8713 7.61849 25.5958 7.62505L31.2132 7.67493C31.9299 7.68018 32.5087 8.25899 32.5139 8.97562L32.5625 14.4632C32.5691 15.1877 31.9863 15.7809 31.2618 15.7875C30.5373 15.7941 29.9441 15.2113 29.9375 14.4868L29.9191 12.3789ZM18.7616 44.3751H12.875C11.4247 44.3751 10.25 43.2004 10.25 41.7501V29.9376C10.25 28.4872 11.4247 27.3126 12.875 27.3126H18.7616V44.3751ZM21.3866 26.046C21.3866 24.5707 22.5823 23.3751 24.0575 23.3751H27.8336C29.3088 23.3751 30.5045 24.5707 30.5045 26.046V44.3751H21.3866V26.046ZM33.1295 20.796C33.1295 19.3207 34.3252 18.1251 35.7991 18.1251H39.125C40.5753 18.1251 41.75 19.2997 41.75 20.7501V41.7501C41.75 43.2004 40.5753 44.3751 39.125 44.3751H33.1295V20.796Z" fill="#00BF58"/>
</svg>
