<svg width="38" height="38" viewBox="0 0 38 38" fill="none" xmlns="http://www.w3.org/2000/svg">
<path d="M22.765 30.1328C24.0403 30.1328 25.185 30.8417 25.7537 31.981L28.1694 36.8125H36.8867C37.2792 36.8125 37.6434 36.6048 37.8445 36.2678C38.0445 35.9297 38.0522 35.5111 37.8641 35.1665L24.5664 10.9234V7.86719H30.1328C30.5829 7.86719 30.9895 7.59651 31.1613 7.18007C31.3341 6.7637 31.2385 6.28529 30.9199 5.96674L29.4805 4.52734L30.92 3.08787C31.2385 2.76932 31.3342 2.29098 31.1614 1.87454C30.9895 1.45825 30.583 1.1875 30.1328 1.1875H23.4531C22.8383 1.1875 22.3399 1.6858 22.3399 2.30078C22.3399 2.58111 22.3399 11.2361 22.3399 10.9234L14.0166 26.183L15.9396 30.1328H22.765Z" fill="#FF7A00"/>
<path d="M1.11325 36.8124H25.6797L23.7608 32.9746C23.5721 32.5975 23.1868 32.3593 22.7652 32.3593H14.5468L8.84565 20.6296C8.64237 20.2904 8.30312 20.0468 7.87918 20.0893C7.48456 20.0937 7.12029 20.3067 6.92465 20.6503L0.146772 35.1469C-0.0499819 35.4915 -0.0489429 35.9144 0.150038 36.258C0.350057 36.6015 0.716401 36.8124 1.11325 36.8124Z" fill="#FF7A00"/>
</svg>
