<svg width="52" height="51" viewBox="0 0 52 51" fill="none" xmlns="http://www.w3.org/2000/svg">
<path d="M46.625 22.5625V29.4375C46.625 31.3335 45.0835 32.875 43.1875 32.875H42.2516C40.937 40.6658 34.16 46.625 26 46.625C25.24 46.625 24.625 46.01 24.625 45.25C24.625 44.49 25.24 43.875 26 43.875C33.5813 43.875 39.75 37.7063 39.75 30.125V21.875C39.75 14.2937 33.5813 8.125 26 8.125C18.4187 8.125 12.25 14.2937 12.25 21.875V31.5C12.25 32.26 11.635 32.875 10.875 32.875H8.8125C6.9165 32.875 5.375 31.3335 5.375 29.4375V22.5625C5.375 20.6665 6.9165 19.125 8.8125 19.125H9.74841C11.063 11.3342 17.84 5.375 26 5.375C34.16 5.375 40.937 11.3342 42.2516 19.125H43.1875C45.0835 19.125 46.625 20.6665 46.625 22.5625ZM26 10.875C19.9347 10.875 15 15.8097 15 21.875V28.75C15 34.8153 19.9347 39.75 26 39.75C32.0653 39.75 37 34.8153 37 28.75V21.875C37 15.8097 32.0653 10.875 26 10.875Z" fill="#FF7A00"/>
</svg>
